<mxfile host="Electron" modified="2024-05-02T12:17:55.463Z" agent="Mozilla/5.0 (Windows NT 10.0; Win64; x64) AppleWebKit/537.36 (KHTML, like Gecko) draw.io/24.2.5 Chrome/120.0.6099.109 Electron/28.1.0 Safari/537.36" etag="xVaVt2YTul4TOrzKwIfS" version="24.2.5" type="device">
  <diagram id="C5RBs43oDa-KdzZeNtuy" name="Page-1">
    <mxGraphModel dx="2100" dy="1242" grid="1" gridSize="10" guides="1" tooltips="1" connect="1" arrows="1" fold="1" page="1" pageScale="1" pageWidth="827" pageHeight="1169" background="#fbe4f8" math="0" shadow="0">
      <root>
        <mxCell id="WIyWlLk6GJQsqaUBKTNV-0" />
        <mxCell id="WIyWlLk6GJQsqaUBKTNV-1" parent="WIyWlLk6GJQsqaUBKTNV-0" />
        <mxCell id="6EwqOUl9h-K7hUrrgeM3-1" value="STOP" style="ellipse;whiteSpace=wrap;html=1;fillColor=#f8cecc;strokeColor=#b85450;" parent="WIyWlLk6GJQsqaUBKTNV-1" vertex="1">
          <mxGeometry x="343" y="950" width="120" height="70" as="geometry" />
        </mxCell>
        <mxCell id="6EwqOUl9h-K7hUrrgeM3-19" style="edgeStyle=orthogonalEdgeStyle;rounded=0;orthogonalLoop=1;jettySize=auto;html=1;exitX=0.5;exitY=1;exitDx=0;exitDy=0;" parent="WIyWlLk6GJQsqaUBKTNV-1" source="6EwqOUl9h-K7hUrrgeM3-2" edge="1">
          <mxGeometry relative="1" as="geometry">
            <mxPoint x="398" y="130" as="targetPoint" />
          </mxGeometry>
        </mxCell>
        <mxCell id="6EwqOUl9h-K7hUrrgeM3-2" value="START" style="ellipse;whiteSpace=wrap;html=1;fillColor=#f8cecc;strokeColor=#b85450;" parent="WIyWlLk6GJQsqaUBKTNV-1" vertex="1">
          <mxGeometry x="338" y="20" width="120" height="70" as="geometry" />
        </mxCell>
        <mxCell id="6EwqOUl9h-K7hUrrgeM3-3" value="Van-e kapszula?" style="rhombus;whiteSpace=wrap;html=1;fillColor=#e6d0de;gradientColor=#d5739d;strokeColor=#996185;" parent="WIyWlLk6GJQsqaUBKTNV-1" vertex="1">
          <mxGeometry x="333" y="130" width="130" height="60" as="geometry" />
        </mxCell>
        <mxCell id="6EwqOUl9h-K7hUrrgeM3-8" value="Tegyünk vizet a kávégpbe!" style="rounded=0;whiteSpace=wrap;html=1;fillColor=#d80073;fontColor=#ffffff;strokeColor=#A50040;" parent="WIyWlLk6GJQsqaUBKTNV-1" vertex="1">
          <mxGeometry x="326" y="231" width="140" height="40" as="geometry" />
        </mxCell>
        <mxCell id="6EwqOUl9h-K7hUrrgeM3-9" value="Tegyük be a kapszulát a kávégépbe!" style="rounded=0;whiteSpace=wrap;html=1;fillColor=#d80073;fontColor=#ffffff;strokeColor=#A50040;" parent="WIyWlLk6GJQsqaUBKTNV-1" vertex="1">
          <mxGeometry x="325" y="310" width="140" height="40" as="geometry" />
        </mxCell>
        <mxCell id="6EwqOUl9h-K7hUrrgeM3-10" value="Kapcsoljuk be a kávégépet!" style="rounded=0;whiteSpace=wrap;html=1;fillColor=#d80073;fontColor=#ffffff;strokeColor=#A50040;" parent="WIyWlLk6GJQsqaUBKTNV-1" vertex="1">
          <mxGeometry x="325" y="390" width="140" height="40" as="geometry" />
        </mxCell>
        <mxCell id="6EwqOUl9h-K7hUrrgeM3-13" value="Van-e kapszula?" style="rounded=0;whiteSpace=wrap;html=1;fillColor=#d80073;fontColor=#ffffff;strokeColor=#A50040;" parent="WIyWlLk6GJQsqaUBKTNV-1" vertex="1">
          <mxGeometry x="530" y="140" width="110" height="40" as="geometry" />
        </mxCell>
        <mxCell id="6EwqOUl9h-K7hUrrgeM3-23" value="" style="endArrow=classic;html=1;rounded=0;exitX=0.5;exitY=1;exitDx=0;exitDy=0;" parent="WIyWlLk6GJQsqaUBKTNV-1" source="6EwqOUl9h-K7hUrrgeM3-3" edge="1">
          <mxGeometry width="50" height="50" relative="1" as="geometry">
            <mxPoint x="390" y="350" as="sourcePoint" />
            <mxPoint x="400" y="210" as="targetPoint" />
          </mxGeometry>
        </mxCell>
        <mxCell id="6EwqOUl9h-K7hUrrgeM3-24" value="" style="endArrow=classic;html=1;rounded=0;" parent="WIyWlLk6GJQsqaUBKTNV-1" edge="1">
          <mxGeometry width="50" height="50" relative="1" as="geometry">
            <mxPoint x="395" y="269" as="sourcePoint" />
            <mxPoint x="395" y="309" as="targetPoint" />
          </mxGeometry>
        </mxCell>
        <mxCell id="6EwqOUl9h-K7hUrrgeM3-25" value="" style="endArrow=classic;html=1;rounded=0;exitX=0.5;exitY=1;exitDx=0;exitDy=0;entryX=0.5;entryY=0;entryDx=0;entryDy=0;" parent="WIyWlLk6GJQsqaUBKTNV-1" source="6EwqOUl9h-K7hUrrgeM3-9" target="6EwqOUl9h-K7hUrrgeM3-10" edge="1">
          <mxGeometry width="50" height="50" relative="1" as="geometry">
            <mxPoint x="350" y="350" as="sourcePoint" />
            <mxPoint x="403" y="370" as="targetPoint" />
          </mxGeometry>
        </mxCell>
        <mxCell id="1it2FXMllTdqUd8bmaAg-0" style="edgeStyle=orthogonalEdgeStyle;rounded=0;orthogonalLoop=1;jettySize=auto;html=1;exitX=0;exitY=0.5;exitDx=0;exitDy=0;entryX=0.5;entryY=0;entryDx=0;entryDy=0;" edge="1" parent="WIyWlLk6GJQsqaUBKTNV-1">
          <mxGeometry relative="1" as="geometry">
            <mxPoint x="394" y="204" as="sourcePoint" />
            <mxPoint x="399" y="231" as="targetPoint" />
          </mxGeometry>
        </mxCell>
        <mxCell id="6EwqOUl9h-K7hUrrgeM3-27" value="" style="ellipse;whiteSpace=wrap;html=1;aspect=fixed;" parent="WIyWlLk6GJQsqaUBKTNV-1" vertex="1">
          <mxGeometry x="395" y="199" width="10" height="10" as="geometry" />
        </mxCell>
        <mxCell id="6EwqOUl9h-K7hUrrgeM3-36" value="" style="endArrow=classic;html=1;rounded=0;" parent="WIyWlLk6GJQsqaUBKTNV-1" edge="1">
          <mxGeometry width="50" height="50" relative="1" as="geometry">
            <mxPoint x="463" y="159.5" as="sourcePoint" />
            <mxPoint x="528" y="159.5" as="targetPoint" />
            <Array as="points">
              <mxPoint x="528" y="159.5" />
            </Array>
          </mxGeometry>
        </mxCell>
        <mxCell id="6EwqOUl9h-K7hUrrgeM3-37" value="" style="endArrow=classic;html=1;rounded=0;exitX=0.5;exitY=1;exitDx=0;exitDy=0;entryX=1;entryY=0.5;entryDx=0;entryDy=0;" parent="WIyWlLk6GJQsqaUBKTNV-1" source="6EwqOUl9h-K7hUrrgeM3-13" target="6EwqOUl9h-K7hUrrgeM3-27" edge="1">
          <mxGeometry width="50" height="50" relative="1" as="geometry">
            <mxPoint x="590" y="271" as="sourcePoint" />
            <mxPoint x="410" y="210" as="targetPoint" />
            <Array as="points">
              <mxPoint x="585" y="204" />
            </Array>
          </mxGeometry>
        </mxCell>
        <mxCell id="1it2FXMllTdqUd8bmaAg-2" value="" style="endArrow=classic;html=1;rounded=0;exitX=0.5;exitY=1;exitDx=0;exitDy=0;" edge="1" parent="WIyWlLk6GJQsqaUBKTNV-1" source="1it2FXMllTdqUd8bmaAg-3">
          <mxGeometry width="50" height="50" relative="1" as="geometry">
            <mxPoint x="395" y="550" as="sourcePoint" />
            <mxPoint x="395" y="480" as="targetPoint" />
          </mxGeometry>
        </mxCell>
        <mxCell id="1it2FXMllTdqUd8bmaAg-4" value="" style="endArrow=classic;html=1;rounded=0;exitX=0.5;exitY=1;exitDx=0;exitDy=0;" edge="1" parent="WIyWlLk6GJQsqaUBKTNV-1" source="6EwqOUl9h-K7hUrrgeM3-10" target="1it2FXMllTdqUd8bmaAg-3">
          <mxGeometry width="50" height="50" relative="1" as="geometry">
            <mxPoint x="395" y="430" as="sourcePoint" />
            <mxPoint x="395" y="480" as="targetPoint" />
          </mxGeometry>
        </mxCell>
        <mxCell id="1it2FXMllTdqUd8bmaAg-3" value="" style="ellipse;whiteSpace=wrap;html=1;aspect=fixed;" vertex="1" parent="WIyWlLk6GJQsqaUBKTNV-1">
          <mxGeometry x="390" y="449" width="10" height="10" as="geometry" />
        </mxCell>
        <mxCell id="1it2FXMllTdqUd8bmaAg-6" value="Várj!" style="rounded=0;whiteSpace=wrap;html=1;fillColor=#d80073;fontColor=#ffffff;strokeColor=#A50040;" vertex="1" parent="WIyWlLk6GJQsqaUBKTNV-1">
          <mxGeometry x="325" y="480" width="140" height="40" as="geometry" />
        </mxCell>
        <mxCell id="1it2FXMllTdqUd8bmaAg-9" value="" style="endArrow=classic;html=1;rounded=0;exitX=0.5;exitY=1;exitDx=0;exitDy=0;" edge="1" parent="WIyWlLk6GJQsqaUBKTNV-1" source="1it2FXMllTdqUd8bmaAg-6">
          <mxGeometry width="50" height="50" relative="1" as="geometry">
            <mxPoint x="400" y="530" as="sourcePoint" />
            <mxPoint x="395" y="570" as="targetPoint" />
          </mxGeometry>
        </mxCell>
        <mxCell id="1it2FXMllTdqUd8bmaAg-10" value="Forr a víz?" style="rhombus;whiteSpace=wrap;html=1;fillColor=#e6d0de;gradientColor=#d5739d;strokeColor=#996185;" vertex="1" parent="WIyWlLk6GJQsqaUBKTNV-1">
          <mxGeometry x="330" y="570" width="130" height="60" as="geometry" />
        </mxCell>
        <mxCell id="1it2FXMllTdqUd8bmaAg-11" value="" style="endArrow=classic;html=1;rounded=0;exitX=1;exitY=0.5;exitDx=0;exitDy=0;" edge="1" parent="WIyWlLk6GJQsqaUBKTNV-1" source="1it2FXMllTdqUd8bmaAg-10">
          <mxGeometry width="50" height="50" relative="1" as="geometry">
            <mxPoint x="450" y="594" as="sourcePoint" />
            <mxPoint x="400" y="454" as="targetPoint" />
            <Array as="points">
              <mxPoint x="510" y="600" />
              <mxPoint x="510" y="454" />
            </Array>
          </mxGeometry>
        </mxCell>
        <mxCell id="1it2FXMllTdqUd8bmaAg-13" value="Lefolyt a kávé!" style="rounded=0;whiteSpace=wrap;html=1;fillColor=#d80073;fontColor=#ffffff;strokeColor=#A50040;" vertex="1" parent="WIyWlLk6GJQsqaUBKTNV-1">
          <mxGeometry x="328" y="678" width="140" height="40" as="geometry" />
        </mxCell>
        <mxCell id="1it2FXMllTdqUd8bmaAg-14" value="" style="endArrow=classic;html=1;rounded=0;exitX=0.5;exitY=1;exitDx=0;exitDy=0;" edge="1" parent="WIyWlLk6GJQsqaUBKTNV-1">
          <mxGeometry width="50" height="50" relative="1" as="geometry">
            <mxPoint x="395.44" y="628" as="sourcePoint" />
            <mxPoint x="395.44" y="678" as="targetPoint" />
          </mxGeometry>
        </mxCell>
        <mxCell id="1it2FXMllTdqUd8bmaAg-15" value="Vegyünk ki a bögrét!" style="rounded=0;whiteSpace=wrap;html=1;fillColor=#d80073;fontColor=#ffffff;strokeColor=#A50040;" vertex="1" parent="WIyWlLk6GJQsqaUBKTNV-1">
          <mxGeometry x="329" y="772" width="140" height="40" as="geometry" />
        </mxCell>
        <mxCell id="1it2FXMllTdqUd8bmaAg-16" value="" style="endArrow=classic;html=1;rounded=0;exitX=0.5;exitY=1;exitDx=0;exitDy=0;" edge="1" parent="WIyWlLk6GJQsqaUBKTNV-1">
          <mxGeometry width="50" height="50" relative="1" as="geometry">
            <mxPoint x="397.44" y="720" as="sourcePoint" />
            <mxPoint x="397.44" y="770" as="targetPoint" />
          </mxGeometry>
        </mxCell>
        <mxCell id="1it2FXMllTdqUd8bmaAg-17" value="Igyuk meg a kávét!" style="rounded=0;whiteSpace=wrap;html=1;fillColor=#d80073;fontColor=#ffffff;strokeColor=#A50040;" vertex="1" parent="WIyWlLk6GJQsqaUBKTNV-1">
          <mxGeometry x="333" y="863" width="140" height="40" as="geometry" />
        </mxCell>
        <mxCell id="1it2FXMllTdqUd8bmaAg-20" value="" style="endArrow=classic;html=1;rounded=0;entryX=0.5;entryY=0;entryDx=0;entryDy=0;exitX=0.5;exitY=1;exitDx=0;exitDy=0;" edge="1" parent="WIyWlLk6GJQsqaUBKTNV-1" source="1it2FXMllTdqUd8bmaAg-15">
          <mxGeometry width="50" height="50" relative="1" as="geometry">
            <mxPoint x="410" y="810" as="sourcePoint" />
            <mxPoint x="400" y="860" as="targetPoint" />
          </mxGeometry>
        </mxCell>
        <mxCell id="1it2FXMllTdqUd8bmaAg-21" value="" style="endArrow=classic;html=1;rounded=0;entryX=0.5;entryY=0;entryDx=0;entryDy=0;exitX=0.5;exitY=1;exitDx=0;exitDy=0;" edge="1" parent="WIyWlLk6GJQsqaUBKTNV-1" source="1it2FXMllTdqUd8bmaAg-17" target="6EwqOUl9h-K7hUrrgeM3-1">
          <mxGeometry width="50" height="50" relative="1" as="geometry">
            <mxPoint x="360" y="700" as="sourcePoint" />
            <mxPoint x="410" y="650" as="targetPoint" />
          </mxGeometry>
        </mxCell>
      </root>
    </mxGraphModel>
  </diagram>
</mxfile>
